<svg width="208" height="124" viewBox="0 0 208 124" fill="none" xmlns="http://www.w3.org/2000/svg">
<path fill-rule="evenodd" clip-rule="evenodd" d="M58.0288 117.966C39.4579 118.415 20.4799 117.518 2.7232 123.882C1.6648 124.257 0.500599 123.71 0.117947 122.65C-0.256564 121.589 0.288927 120.422 1.34733 120.039C19.5193 113.528 38.9287 114.344 57.9311 113.887C59.0546 113.854 59.9908 114.752 60.0153 115.878C60.0478 117.004 59.1523 117.934 58.0288 117.966Z" fill="#E8E8E8"/>
<path fill-rule="evenodd" clip-rule="evenodd" d="M59.6979 90.9458C53.9092 85.6082 47.5914 81.6094 39.9546 79.6276C38.8637 79.3453 38.2124 78.2315 38.4892 77.1415C38.7742 76.0514 39.8895 75.3963 40.9723 75.6786C49.2767 77.8326 56.1563 82.1422 62.4497 87.9425C63.2802 88.7046 63.3372 89.9962 62.5719 90.8251C61.8147 91.6533 60.5202 91.7079 59.6979 90.9458Z" fill="#E8E8E8"/>
<path fill-rule="evenodd" clip-rule="evenodd" d="M75.8014 32.6711C73.1473 23.5533 67.9204 16.4207 59.9091 11.2698C58.9647 10.662 58.6879 9.39895 59.2985 8.45168C59.901 7.50441 61.163 7.22861 62.1074 7.83646C70.9735 13.5397 76.7703 21.4328 79.7094 31.528C80.0269 32.6083 79.4 33.7424 78.3253 34.0574C77.2425 34.3731 76.1108 33.7514 75.8014 32.6711Z" fill="#E8E8E8"/>
<path fill-rule="evenodd" clip-rule="evenodd" d="M167.272 20.297C168.851 22.1598 170.268 24.1669 171.473 26.3038C172.01 27.2551 172.955 29.2769 173.101 31.0107C173.264 32.858 172.637 34.4164 171.025 35.2372C168.884 36.3256 167.174 36.2122 165.855 35.5538C164.585 34.9214 163.592 33.6788 162.965 32.0127C161.768 28.8282 161.948 23.9613 162.574 21.184C160.889 19.4412 159.041 17.8607 157.063 16.4557C142.326 5.99168 120.711 9.85014 104.077 25.496C98.2561 30.974 95.4555 42.4784 93.9981 54.8908C91.7266 74.2172 93.0211 95.803 93.2003 102.127C93.241 103.689 93.0944 104.616 93.013 104.801C92.6304 105.711 91.9546 105.948 91.4824 106.038C90.7985 106.16 90.2531 106.03 89.8134 105.801C89.2191 105.488 88.7305 104.936 88.5026 104.085C88.3804 103.615 88.3479 102.961 88.3642 102.263C88.3805 101.78 88.4782 101.251 88.3805 100.904C87.7455 98.6831 86.9802 96.5144 86.2311 94.3303C83.7317 86.9879 80.4994 80.1073 76.909 73.2349C65.5027 51.3979 54.471 28.3248 35.7699 11.6876C34.9313 10.941 34.8498 9.65024 35.5988 8.80822C36.3397 7.9662 37.6261 7.88948 38.4728 8.63686C57.5485 25.6029 68.8815 49.0734 80.5158 71.3428C83.5688 77.1888 86.3696 83.043 88.6981 89.1664C88.462 78.3344 88.5515 63.3404 90.5299 50.0737C92.2885 38.2748 95.6346 27.8475 101.293 22.522C119.514 5.3822 143.279 1.66412 159.415 13.1276C161.142 14.3548 162.786 15.7043 164.317 17.1681C172.759 1.89014 190.834 -4.2333 206.807 3.07399C207.833 3.54151 208.281 4.75233 207.817 5.77629C207.345 6.80026 206.14 7.25229 205.114 6.78478C190.72 0.200384 174.396 6.07654 167.272 20.297ZM166.092 25.412C166.751 26.3454 167.362 27.3131 167.932 28.3134C168.233 28.8502 168.754 29.8824 168.974 30.8925C169.023 31.1291 169.031 31.4995 169.031 31.6708C168.469 31.9482 168.029 32.0821 167.671 31.9017C167.223 31.6798 166.995 31.1576 166.775 30.5742C166.222 29.1105 166.043 27.1702 166.092 25.412Z" fill="#E8E8E8"/>
</svg>
